<svg id="Icons_Delete" data-name="Icons/Delete" xmlns="http://www.w3.org/2000/svg" width="18" height="18" viewBox="0 0 18 18">
  <path id="Path_3490" data-name="Path 3490" d="M19.1,5H2.9a.9.9,0,1,0,0,1.8H4.7V17.6a2.7,2.7,0,0,0,2.7,2.7h7.2a2.7,2.7,0,0,0,2.7-2.7V6.8h1.8a.9.9,0,0,0,0-1.8ZM15.5,17.6a.9.9,0,0,1-.9.9H7.4a.9.9,0,0,1-.9-.9V6.8h9Z" transform="translate(-2 -2.3)" fill="#c10e21"/>
  <path id="Path_3491" data-name="Path 3491" d="M9.9,3.8h3.6a.9.9,0,1,0,0-1.8H9.9a.9.9,0,1,0,0,1.8Z" transform="translate(-2.7 -2)" fill="#c10e21"/>
  <path id="Path_3492" data-name="Path 3492" d="M10.8,15.4V10.9a.9.9,0,0,0-1.8,0v4.5a.9.9,0,0,0,1.8,0Z" transform="translate(-2.7 -2.8)" fill="#c10e21"/>
  <path id="Path_3493" data-name="Path 3493" d="M14.8,15.4V10.9a.9.9,0,0,0-1.8,0v4.5a.9.9,0,0,0,1.8,0Z" transform="translate(-3.1 -2.8)" fill="#c10e21"/>
</svg>
